<svg width="25" height="25" viewBox="0 0 25 25" fill="none" xmlns="http://www.w3.org/2000/svg">
<path d="M12.3167 9.09776C12.7915 9.1904 13.2279 9.42261 13.5699 9.76468C13.912 10.1067 14.1442 10.5431 14.2368 11.0179M12.3167 7.15332C13.3032 7.26291 14.223 7.70466 14.9253 8.40603C15.6276 9.10741 16.0705 10.0267 16.1813 11.013M15.6952 14.8922V16.3505C15.6957 16.4859 15.668 16.6199 15.6138 16.744C15.5595 16.868 15.48 16.9794 15.3802 17.0709C15.2805 17.1624 15.1627 17.2321 15.0344 17.2755C14.9062 17.3188 14.7703 17.335 14.6355 17.3228C13.1396 17.1602 11.7027 16.6491 10.4403 15.8304C9.26579 15.0841 8.26999 14.0883 7.52365 12.9137C6.70211 11.6456 6.19085 10.2017 6.03129 8.69915C6.01914 8.56473 6.03512 8.42925 6.0782 8.30133C6.12128 8.17342 6.19053 8.05588 6.28152 7.95619C6.37252 7.85651 6.48328 7.77686 6.60674 7.72232C6.73021 7.66779 6.86368 7.63956 6.99865 7.63943H8.45698C8.6929 7.63711 8.92161 7.72065 9.10048 7.87448C9.27935 8.02831 9.39619 8.24194 9.42921 8.47554C9.49076 8.94224 9.60491 9.40048 9.76948 9.84151C9.83489 10.0155 9.84904 10.2046 9.81027 10.3864C9.7715 10.5682 9.68143 10.735 9.55073 10.8672L8.93337 11.4846C9.62538 12.7016 10.633 13.7092 11.85 14.4012L12.4674 13.7839C12.5996 13.6532 12.7664 13.5631 12.9482 13.5243C13.13 13.4856 13.3191 13.4997 13.4931 13.5651C13.9341 13.7297 14.3924 13.8439 14.8591 13.9054C15.0952 13.9387 15.3109 14.0577 15.465 14.2396C15.6192 14.4215 15.7011 14.6538 15.6952 14.8922Z" stroke="#ACB5BD" stroke-width="1.16667" stroke-linecap="round" stroke-linejoin="round"/>
<circle cx="12.5" cy="12.5" r="11.875" stroke="#ACB5BD" stroke-width="1.25"/>
<path d="M22.4987 17.0833C22.4987 19.6146 20.4467 21.6667 17.9154 21.6667C15.3841 21.6667 13.332 19.6146 13.332 17.0833C13.332 14.552 15.3841 12.5 17.9154 12.5C20.4467 12.5 22.4987 14.552 22.4987 17.0833Z" fill="#ACB5BD"/>
<path fill-rule="evenodd" clip-rule="evenodd" d="M16.25 17.9163C16.7102 17.9163 17.0833 17.5432 17.0833 17.083C17.0833 16.6228 16.7102 16.2497 16.25 16.2497C15.7898 16.2497 15.4167 16.6228 15.4167 17.083C15.4167 17.5432 15.7898 17.9163 16.25 17.9163ZM17.1817 17.9164C17.3796 17.6952 17.5 17.4032 17.5 17.083C17.5 16.3927 16.9404 15.833 16.25 15.833C15.5596 15.833 15 16.3927 15 17.083C15 17.6555 15.3849 18.1382 15.9101 18.2862C15.946 18.3155 15.9918 18.333 16.0417 18.333H19.5833H19.7917C19.8415 18.333 19.8873 18.3155 19.9232 18.2863C20.4484 18.1382 20.8333 17.6556 20.8333 17.083C20.8333 16.3927 20.2737 15.833 19.5833 15.833C18.893 15.833 18.3333 16.3927 18.3333 17.083C18.3333 17.4032 18.4537 17.6952 18.6516 17.9164H17.1817ZM19.5833 17.9164C20.0436 17.9164 20.4167 17.5433 20.4167 17.083C20.4167 16.6228 20.0436 16.2497 19.5833 16.2497C19.1231 16.2497 18.75 16.6228 18.75 17.083C18.75 17.5433 19.1231 17.9164 19.5833 17.9164Z" fill="#F8F9FA"/>
</svg>
