<svg width="25" height="25" viewBox="0 0 25 25" fill="none" xmlns="http://www.w3.org/2000/svg">
<circle cx="12.5" cy="12.5" r="11.875" fill="#F8F9FA" stroke="#38C976" stroke-width="1.25"/>
<path d="M18.125 11.25C18.125 15.625 12.5 19.375 12.5 19.375C12.5 19.375 6.875 15.625 6.875 11.25C6.875 9.75816 7.46763 8.32742 8.52252 7.27252C9.57742 6.21763 11.0082 5.625 12.5 5.625C13.9918 5.625 15.4226 6.21763 16.4775 7.27252C17.5324 8.32742 18.125 9.75816 18.125 11.25Z" fill="#38C976" stroke="#F8F9FA" stroke-width="1.25" stroke-linecap="round" stroke-linejoin="round"/>
<path d="M12.5 13.125C13.5355 13.125 14.375 12.2855 14.375 11.25C14.375 10.2145 13.5355 9.375 12.5 9.375C11.4645 9.375 10.625 10.2145 10.625 11.25C10.625 12.2855 11.4645 13.125 12.5 13.125Z" fill="#F8F9FA" stroke="#F8F9FA" stroke-width="1.25" stroke-linecap="round" stroke-linejoin="round"/>
</svg>
